<svg version="1.1" viewBox="0 0 126.67 90.667" xmlns="http://www.w3.org/2000/svg"><defs><clipPath id="ab"><path d="m65.432 17.898c-2.2959 1.533-3.4438 0.7406-3.4438 0.7406 0.13516-1.2778 0.77174-2.4497 1.77-3.2586 1.1393-0.9048 2.5682-1.3653 4.0215-1.296-0.14308 1.5685-1.0118 2.9798-2.3477 3.8141zm-34.371-8.8872c-0.96611-1.5219-1.2934-3.3633-0.91093-5.125 0 0 1.8663-0.52583 4.214 2.5403 1.3795 1.7024 1.8911 3.9485 1.3849 6.0803-1.9445-0.5475-3.614-1.8023-4.6806-3.5178l-0.0074 0.022218zm-7.2282 6.9913c-0.9983-0.80893-1.6349-1.9809-1.77-3.2586 0 0 1.1479-0.7406 3.4438 0.7406 1.3281 0.82812 2.1957 2.2267 2.3477 3.7845-1.4527 0.09221-2.8865-0.3681-4.0141-1.2886zm21.255-6.1248c-1.273-1.1608-2.0301-2.7816-2.1033-4.5028-0.08237-1.9362 0.56818-3.8323 1.8219-5.3101 1.5613 1.3852 2.3836 3.4217 2.2218 5.5027-0.16293 3.7104-1.9404 4.2881-1.9404 4.2881zm12.494 0.044436c-0.28292-1.2467-0.05915-2.5546 0.6221-3.6363 0.78535-1.2223 1.9969-2.1092 3.3994-2.4884 0.35213 1.5152-0.02007 3.108-1.0072 4.3103-1.7182 2.1774-3.0142 1.7923-3.0142 1.7923zm7.8504 42.362c1.3433 0.8246 2.2231 2.2306 2.3773 3.7993-1.4561 0.09204-2.8931-0.37107-4.0214-1.296-0.9983-0.80893-1.6349-1.9809-1.77-3.2586 0 0 1.1183-0.79245 3.4142 0.73319zm-40.303-3.0142c-0.15196 1.5578-1.0196 2.9563-2.3477 3.7845-2.2959 1.533-3.4438 0.7406-3.4438 0.7406 0.13515-1.2778 0.77174-2.4497 1.77-3.2586 1.1269-0.92699 2.5656-1.388 4.0215-1.2886zm7.6134 8.2947c0.35213 1.5152-0.02007 3.108-1.0072 4.3103-1.6738 2.2218-3.0142 1.8219-3.0142 1.8219-0.28292-1.2466-0.05915-2.5546 0.6221-3.6363 0.77591-1.2326 1.9909-2.1247 3.3994-2.4958zm25.921 2.681c1.378 1.6654 1.8911 3.8826 1.3849 5.984-1.9332-0.53191-3.6024-1.7581-4.688-3.4438-0.96427-1.5039-1.2745-3.3356-0.8591-5.0731 0 0 1.8367-0.51842 4.1844 2.5477zm-14.027 2.681c0.14045 1.9193-0.62061 3.7945-2.0589 5.0731-1.1418-1.3642-1.738-3.1028-1.6738-4.8806 0.07842-1.5795 0.78506-3.0621 1.9626-4.1177 0 0 1.6515 0.54064 1.7922 3.94z" clip-rule="evenodd"/></clipPath><clipPath id="aa"><path d="m-140-407h375v812h-375z"/></clipPath><clipPath id="z"><path d="m5.2657 17.373-5.2657 21.974 9.4278 2.2218 0.81466-3.3475-6.1248-1.4812 1.4368-5.984 4.4436 1.0516 0.81466-3.3475-4.4436-1.0517 1.4368-5.984 6.1248 1.4812 0.81466-3.3475z" clip-rule="evenodd"/></clipPath><clipPath id="y"><path d="m-140-407h375v812h-375z"/></clipPath><clipPath id="x"><path d="m21.537 20.579c-1.4088-0.26543-2.8646 0.06434-4.0215 0.91094-1.1783 0.82117-1.9785 2.0802-2.2218 3.4956l-2.0589 12.161c-0.26543 1.4088 0.06434 2.8646 0.91094 4.0215 0.81582 1.1839 2.0774 1.9857 3.4956 2.2218 1.4054 0.25012 2.8523-0.07614 4.0144-0.90519 1.1621-0.82906 1.9414-2.0911 2.1622-3.5014l0.42954-2.5403-3.4956-0.57766-0.42955 2.6291c-0.07819 0.52699-0.37368 0.99708-0.81466 1.296-0.41997 0.32505-0.96247 0.44711-1.4812 0.33327-0.51686-0.0687-0.97456-0.36839-1.2442-0.81466-0.30376-0.42972-0.4237-0.96279-0.33327-1.4812l2.1551-12.257c0.06266-0.49984 0.33111-0.95083 0.7406-1.2442 0.41502-0.2989 0.93254-0.41895 1.4368-0.33327 0.51066 0.07251 0.97431 0.33745 1.296 0.7406 0.32047 0.40493 0.44276 0.9321 0.33327 1.4368l-0.51842 3.0735 3.4956 0.57767 0.52582-3.1105c0.26544-1.4088-0.06433-2.8646-0.91093-4.0215-0.84269-1.1212-2.0832-1.8766-3.466-2.1107z" clip-rule="evenodd"/></clipPath><clipPath id="w"><path d="m-140-407h375v812h-375z"/></clipPath><clipPath id="v"><path d="m75.438 26.178c-0.13464-1.4389-0.7811-2.7818-1.8219-3.7845-0.69956-0.66479-1.5862-1.0991-2.5403-1.2442-0.63658-0.10467-1.2871-0.0896-1.9182 0.04443-1.1728 0.13376-2.2674 0.65502-3.1105 1.4812-0.66369 0.68234-1.1406 1.524-1.3849 2.444-0.30028 1.0587-0.38093 2.1676-0.23699 3.2586l3.2586-0.23699c-0.12255-1.029 0.09601-2.0697 0.62211-2.9624 0.28121-0.46635 0.757-0.78173 1.296-0.8591 0.73865-0.08808 1.4686 0.22195 1.9182 0.81466 0.33957 0.40583 0.54181 0.90883 0.57767 1.4368 0.10359 1.061-0.20391 2.1214-0.8591 2.9624-0.57767 0.7406-1.4368 1.8219-2.5403 3.3031-0.79649 0.98574-1.4429 2.0838-1.9182 3.2586-0.33798 1.0511-0.43666 2.1645-0.28883 3.2586 0.16753 1.8037 1.204 3.4123 2.7772 4.3103 1.0063 0.50635 2.1489 0.67514 3.2586 0.48139 1.09-0.14358 2.1171-0.59294 2.9624-1.296 0.62029-0.53531 1.0836-1.229 1.3405-2.007 0.30733-0.85817 0.42113-1.7737 0.33327-2.681l-3.3031-0.09628c0.07646 0.77275-0.09194 1.55-0.48139 2.2218-0.27624 0.42771-0.73654 0.7017-1.2442 0.7406-0.59 0.12394-1.1962-0.12207-1.533-0.62211-0.35665-0.45397-0.57288-1.0023-0.62211-1.5775-0.10494-1.1673 0.19872-2.3348 0.8591-3.3031 0.39896-0.58274 0.83172-1.1416 1.296-1.6738 0.48524-0.51033 0.93322-1.0548 1.3405-1.6293 0.63404-0.83356 1.1499-1.7507 1.533-2.7254 0.14852-0.37077 0.26015-0.75527 0.33327-1.1479 0.12069-0.71667 0.15303-1.4454 0.09627-2.17z" clip-rule="evenodd"/></clipPath><clipPath id="u"><path d="m-140-407h375v812h-375z"/></clipPath><clipPath id="t"><path d="m79.459 19.52-3.3475 0.66654 4.5473 22.114 3.3475-0.66654z" clip-rule="evenodd"/></clipPath><clipPath id="s"><path d="m-140-407h375v812h-375z"/></clipPath><clipPath id="r"><path d="m86.591 23.209-2.1033-4.8361-3.4438 0.85909 9.3316 20.87 4.5473-1.1479-1.933-22.781-3.4438 0.91094 0.52583 5.1842zm4.7843 11.39-3.4438-8.2799 2.444-0.6221z" clip-rule="evenodd"/></clipPath><clipPath id="q"><path d="m-140-407h375v812h-375z"/></clipPath><clipPath id="p"><path d="m27.608 34.82c0-9.7893 7.9367-17.726 17.727-17.726 9.7899 0 17.727 7.9367 17.727 17.726 0 9.7906-7.9367 17.727-17.727 17.727-9.7906 0-17.727-7.9367-17.727-17.727zm3.2291-6.0076c-2.4383 5.8499-1.109 12.592 3.3649 17.079 4.4759 4.4879 11.214 5.8359 17.071 3.4149 5.8572-2.421 9.6775-8.1338 9.6775-14.471 0.0073-4.1471-1.6342-8.1284-4.5625-11.065-2.9289-2.9369-6.905-4.5898-11.053-4.5944h-0.0446c-6.3198 0-12.022 3.8003-14.454 9.6362z" clip-rule="evenodd"/></clipPath><clipPath id="o"><path d="m-140-407h375v812h-375z"/></clipPath><clipPath id="n"><path d="m32.334 34.816c0-7.179 5.8205-13 13-13 7.1803 0 13.001 5.8212 13.001 13 0 7.1796-5.8205 13-13.001 13-7.1796 0-13-5.8205-13-13z" clip-rule="evenodd"/></clipPath><clipPath id="m"><path d="m-140-407h375v812h-375z"/></clipPath><clipPath id="l"><path d="m34.354 41.776c0.17373 0.03328 0.34348 0.04127 0.46996 0.08786 0.26293 0.14712 0.50856 0.32285 0.73156 0.52588 0.18905 0.08454 0.34149 0.02929 0.48061-0.02663 0.1764-0.06923 0.33417-0.13979 0.52388 0.07056 0.33949 0.3781-0.14045 1.1483-0.14045 1.6296 8e-3 0.09985 0.03661 0.19704 0.07854 0.28957-0.82076-0.76152-1.541-1.6276-2.1441-2.5768z" clip-rule="evenodd"/></clipPath><clipPath id="k"><path d="m-140-407h375v812h-375z"/></clipPath><clipPath id="j"><path d="m32.465 36.65c-0.03594-0.25429-0.06257-0.50924-0.08321-0.76485-0.0067-0.07323-0.01264-0.14645-0.0173-0.22034-0.01864-0.29023-0.03062-0.58179-0.02999-0.87269 0.0054-2.2153 0.56385-4.2989 1.545-6.1221 0.1358 0.1318 0.27692 0.22765 0.41271 0.37077 0.19238 0.33283 0.42803 0.66567 0.61974 1.0065 0.40006 0.24363 0.78349 0.51589 1.1456 0.81477 0.09519 0.2889 0.23631 0.62173 0.33217 0.91063 0.09519 0.28824 0.66433 0.66633 0.5758 1.1989-0.21435 0.75486-1.1742 0.85205-1.6994 1.3779-0.23564 0.33283-0.47928 0.74022-0.73755 1.0511-0.54585 0.63105-1.2568 1.095-2.0522 1.34-0.0047-0.02996-0.0073-0.06058-0.01132-0.09053z" clip-rule="evenodd"/></clipPath><clipPath id="i"><path d="m-140-407h375v812h-375z"/></clipPath><clipPath id="h"><path d="m46.59 44.092c-0.62706-0.16975-1.1922-0.51989-1.6249-1.0065-0.33217-0.52587 0.09586-0.85871-0.52388-1.1476-0.34548 0.16243-0.66633 0.37145-0.95323 0.62174-0.26893-0.01931-0.51389-0.16043-0.665-0.38476-0.04327-0.57713 0.38475-0.66567 0.38475-1.2435-0.23631-0.3335-0.81344-0.38542-0.95323-0.74089-0.14112-0.35546 0-0.90996-0.28757-1.2435-0.42869-0.38542-0.85737-0.81478-1.2408-1.1995-0.67432-1.0065-0.59577-2.3385 0.19105-3.2578 0.32484-0.32618 0.74088-0.31486 1.1822-0.30288 0.33949 0.0087 0.69362 0.01798 1.0338-0.12647 0.57647-0.23765 0.665-1.34 0.81211-1.8665 0.28824-0.85804-0.23564-1.2435-0.23564-2.0576 0-0.81478 0.28823-3.1612 1.4332-3.11 1.2921 0.0446 1.5736 1.34 2.2892 2.2213 0.31752 0.23765 0.59178 0.52854 0.81344 0.85938 0 0.42869 0.04394 0.90996 0.04394 1.3393 0.28756 0.74022 1.1962 1.0072 1.6688 1.577 0.47329 0.57047 0.04393 0.95523 0.28823 1.3852 0.02397 0 0.0446 0.0193 0.0446 0.04393 0.38343 0.23698 0.73823 0.43002 1.1955 0.66633 0.18106 0.23232 0.37344 0.45465 0.57713 0.667l0.42869 0.13979c1.4764-0.74022 0.95257-2.2946 2.0017-3.1093 0.09519 0.0446 0.13979 0.09585 0.23564 0.14045 0.07988 0.21435 0.12648 0.43934 0.14112 0.667 0.21901 0.667 0.87602 1.0877 1.573 1.0072 0.45864-0.45531 0.80346-1.0138 1.0038-1.6296 0.09653-0.5778-0.28756-0.91063-0.28756-1.3839 0.0446-0.40938 0.1977-0.7968 0.43468-1.1316 6.6e-4 0 6.6e-4 6.7e-4 6.6e-4 2e-3 0.47928 1.3546 0.74222 2.8124 0.74222 4.3315v0.00537c0 0.21368-0.0053 0.42536-0.01598 0.63571-2e-3 0.03328-0.0047 0.06723-6e-3 0.09985-0.18039 3.2045-1.521 6.0962-3.6072 8.2669-0.28291 0.0073-0.58512-0.0073-0.86537-0.04526-1.342-0.22437-2.6959-0.36749-4.0546-0.4294-1.1256 0-1.7747 0.79747-2.7439 0.79747-0.14378 0-0.29422-0.01731-0.45465-0.05791zm0.25895-6.011c-0.33217 0.04393-0.73889 0.04393-1.0491 0.09585-0.04394 0-1.7208 1.34-1.7654 1.4365 0.05791 0.15377 0.17907 0.27558 0.33217 0.33283 0.43468-0.18439 0.83741-0.43335 1.1969-0.74022l0.665-0.14045c0.23631-0.19238 0.47994-0.3335 0.73888-0.52588 0.29223-0.10517 0.59777-0.16974 0.90731-0.19238 0-0.04393 0.0446-0.09652 0.0446-0.14045v-0.23765c-0.11516-0.02928-0.22566-0.07122-0.33217-0.12581-0.26427 0.0033-0.52122 0.08587-0.73822 0.23765z" clip-rule="evenodd"/></clipPath><clipPath id="g"><path d="m-140-407h375v812h-375z"/></clipPath><clipPath id="f"><path d="m49.117 29.633c-0.47329-0.2656-0.77883-0.75354-0.81211-1.296 0.07122-0.14445 0.18771-0.26094 0.3315-0.33284 0.52521 0.19305 1.101 1.0511 0.73889 1.577-0.06457 0.03594-0.13646 0.05458-0.20969 0.05458-0.01597 0-0.03262-6.6e-4 -0.04859-0.0027z" clip-rule="evenodd"/></clipPath><clipPath id="e"><path d="m-140-407h375v812h-375z"/></clipPath><clipPath id="d"><path d="m38.495 45.876c0.10517-0.1085 0.18572-0.2403 0.23631-0.38342-0.21102-0.30887-0.3122-0.67898-0.2889-1.0518 0.03461-0.2017 0.15577-0.37877 0.33217-0.48128 0.50857 0.05059 0.9985 0.21501 1.4332 0.48128 0.47995 0.09585 1.0052 0.14045 1.4771 0.23697 0.47329 0.09653 1.5583 0.96988 1.1749 1.6355-0.23631 0.09653-0.669 0.2463-0.73889 0.23765-0.69962-0.0932-1.4092-0.04527-2.0895 0.13912-0.53253-0.23831-1.0458-0.50923-1.5364-0.81411z" clip-rule="evenodd"/></clipPath><clipPath id="c"><path d="m-140-407h375v812h-375z"/></clipPath><clipPath id="b"><path d="m33 38h15v14h-15z"/></clipPath><clipPath id="a"><path d="m38 43h6v4h-6z"/></clipPath></defs><g transform="matrix(1.3333 0 0 -1.3333 0 90.667)"><g clip-path="url(#ab)"><g clip-path="url(#aa)"><path d="m14.337 73h58.472v-77.935h-58.472z" fill="#36acb8"/></g></g><g clip-path="url(#z)"><g clip-path="url(#y)"><path d="m-5 46.568h24.745v-34.195h-24.745z" fill="#4a4a4a"/></g></g><g clip-path="url(#x)"><g clip-path="url(#w)"><path d="m8.1449 48.472h22.858v-32.982h-22.858z" fill="#4a4a4a"/></g></g><g clip-path="url(#v)"><g clip-path="url(#u)"><path d="m59.355 49.223h22.836v-33.142h-22.836z" fill="#4a4a4a"/></g></g><g clip-path="url(#t)"><g clip-path="url(#s)"><path d="m71.111 47.301h17.895v-32.781h-17.895z" fill="#4a4a4a"/></g></g><g clip-path="url(#r)"><g clip-path="url(#q)"><path d="m76.044 45.102h23.879v-33.929h-23.879z" fill="#4a4a4a"/></g></g><g clip-path="url(#p)"><g clip-path="url(#o)"><path d="m22.608 57.547h45.454v-45.453h-45.454z" fill="#ff7950"/></g></g><g clip-path="url(#n)"><g clip-path="url(#m)"><path d="m27.334 52.817h36.001v-36h-36.001z" fill="#36acb8"/></g></g><g clip-path="url(#l)"><g clip-path="url(#k)"><path d="m29.354 49.353h12.327v-12.577h-12.327z" fill="#d3da31"/></g></g><g clip-path="url(#j)"><g clip-path="url(#i)"><path d="m27.335 41.741h14.64v-18.071h-14.64z" fill="#d3da31"/></g></g><g clip-path="url(#h)"><g clip-path="url(#g)"><path d="m35.269 49.15h28.069v-27.124h-28.069z" fill="#d3da31"/></g></g><g clip-path="url(#f)"><g clip-path="url(#e)"><path d="m43.305 34.635h11.184v-11.632h-11.184z" fill="#d3da31"/></g></g><g clip-path="url(#d)"><g clip-path="url(#c)"><g clip-path="url(#b)"><g clip-path="url(#a)"><path d="m33.439 51.69h14.501v-12.731h-14.501z" fill="#d3da31"/></g></g></g></g></g></svg>
