<?xml version="1.0" encoding="UTF-8"?>
<svg width="110px" height="110px" viewBox="0 0 110 110" version="1.1" xmlns="http://www.w3.org/2000/svg" xmlns:xlink="http://www.w3.org/1999/xlink">
    <title>brands-logos-qwant-letter 110</title>
    <g id="brands-logos-qwant-letter-110" stroke="none" stroke-width="1" fill="none" fill-rule="evenodd">
        <g id="Brands/Logos/Qwant/Favicon-Qwant">
            <path d="M18.3333333,0 L91.6666667,0 C101.791887,0 110,8.20811292 110,18.3333333 L110,91.6666667 C110,101.791887 101.791887,110 91.6666667,110 L18.3333333,110 C8.20811292,110 0,101.791887 0,91.6666667 L0,18.3333333 C0,8.20811292 8.20811292,0 18.3333333,0 Z" id="Rectangle" fill="#5C97FF"></path>
            <g id="Brands/Logos/Qwant/Letter-Monochrome" transform="translate(19.335938, 12.031250)" fill="#050506">
                <path d="M36.0950766,71.2112565 C55.5066512,70.9496825 71.2176755,55.0808579 71.2176755,35.6088377 C71.2176755,15.9736681 55.2434725,0 35.6088377,0 C15.974203,0 0,15.9736681 0,35.6088377 C0,55.2418677 15.9720634,71.2150009 35.6045584,71.2171406 L40.2219552,85.9375 L75.7163209,85.9375 L71.0973194,71.2112565 L36.0950766,71.2112565 Z M12.0463132,35.6088377 C12.0463132,22.6157228 22.6162577,12.0457783 35.6088377,12.0457783 C48.6019527,12.0457783 59.1718972,22.6157228 59.1718972,35.6088377 C59.1718972,48.6014178 48.6019527,59.1713623 35.6088377,59.1713623 C22.6162577,59.1713623 12.0463132,48.6014178 12.0463132,35.6088377 L12.0463132,35.6088377 Z" id="Fill-351"></path>
            </g>
        </g>
    </g>
</svg>